<?xml version="1.0" encoding="utf-8"?>
<!-- Generator: Adobe Illustrator 27.2.0, SVG Export Plug-In . SVG Version: 6.00 Build 0)  -->
<svg version="1.1" id="Слой_1" xmlns="http://www.w3.org/2000/svg" xmlns:xlink="http://www.w3.org/1999/xlink" x="0px" y="0px"
	 viewBox="0 0 43.67 36.11" style="enable-background:new 0 0 43.67 36.11;" xml:space="preserve">
<style type="text/css">
	.st0{fill:#FFFFFF;}
	.st1{fill:url(#SVGID_1_);}
	.st2{fill:url(#SVGID_00000039129229371978224050000015325817724923059386_);}
	.st3{fill:url(#SVGID_00000001652201349213141110000005396164666311444108_);}
	.st4{fill:url(#SVGID_00000064321144956652309940000010953628433526479265_);}
	.st5{fill:url(#SVGID_00000079468340365595376100000010634034135715319713_);}
	.st6{fill:url(#SVGID_00000177474193506591385400000004683115420283430829_);}
	.st7{fill:url(#SVGID_00000178924525842596164620000016700877190888942721_);}
	.st8{clip-path:url(#SVGID_00000003797509961215972370000008589166024725142439_);fill:#9CFFD4;}
	.st9{fill:url(#SVGID_00000016768357704305936930000003426562842887395247_);}
	.st10{fill:url(#SVGID_00000173856635462191447820000013609827295212598701_);}
	.st11{fill:url(#SVGID_00000047021878195393325170000002127290305335779501_);}
	.st12{fill:url(#SVGID_00000091704204021015831660000001860036823462778770_);}
	.st13{clip-path:url(#SVGID_00000099632496071501103840000011436309672131617423_);fill:#9CFFD4;}
	.st14{fill:url(#SVGID_00000162334622700630205190000014943187144881533327_);}
	.st15{clip-path:url(#SVGID_00000011019424557400515150000003362309884903045529_);fill:#9CFFD4;}
	.st16{fill:url(#SVGID_00000119109637661156422350000007695755150904961185_);}
	.st17{clip-path:url(#SVGID_00000135657148170895218600000007889684619495733424_);fill:#9CFFD4;}
	.st18{clip-path:url(#SVGID_00000116232805463614215010000003191952027147723706_);}
	.st19{clip-path:url(#SVGID_00000080894962844815987400000010933049379792050597_);}
	.st20{fill:#FFDAAC;stroke:#808080;stroke-miterlimit:10;stroke-dasharray:4;}
	.st21{fill:#FFDAAC;}
	.st22{fill:none;stroke:#808080;stroke-miterlimit:10;}
	.st23{fill:none;stroke:#808080;stroke-miterlimit:10;stroke-dasharray:4.2056,4.2056;}
	.st24{fill:none;stroke:#808080;stroke-miterlimit:10;stroke-dasharray:3.0978,3.0978;}
	.st25{fill:none;stroke:#808080;stroke-miterlimit:10;stroke-dasharray:3.3103,3.3103;}
	.st26{fill:none;stroke:#808080;stroke-miterlimit:10;stroke-dasharray:2.3694,2.3694;}
	.st27{fill:none;stroke:#808080;stroke-miterlimit:10;stroke-dasharray:2.8854,2.8854;}
	.st28{fill:none;stroke:#808080;stroke-miterlimit:10;stroke-dasharray:5.1009,5.1009;}
	.st29{fill:none;stroke:#808080;stroke-miterlimit:10;stroke-dasharray:3.6161,3.6161;}
	.st30{fill:none;stroke:#808080;stroke-miterlimit:10;stroke-dasharray:3.1433,3.1433;}
	.st31{fill:none;stroke:#808080;stroke-miterlimit:10;stroke-dasharray:4.0795,4.0795;}
	.st32{fill:none;stroke:#808080;stroke-miterlimit:10;stroke-dasharray:3.823,3.823;}
	.st33{fill:none;stroke:#808080;stroke-miterlimit:10;stroke-dasharray:4.2919,4.2919;}
	.st34{fill:none;stroke:#808080;stroke-miterlimit:10;stroke-dasharray:4.2468,4.2468;}
	.st35{fill:none;stroke:#808080;stroke-miterlimit:10;stroke-dasharray:3.8855,3.8855;}
	.st36{fill:none;stroke:#808080;stroke-miterlimit:10;stroke-dasharray:3.3634,3.3634;}
	.st37{fill:#00649E;}
	.st38{fill:#808080;}
	.st39{fill:#FF1380;}
	.st40{fill:#DB423A;}
</style>
<g>
	
		<linearGradient id="SVGID_1_" gradientUnits="userSpaceOnUse" x1="-99.9004" y1="5.6145" x2="-66.8737" y2="6.3319" gradientTransform="matrix(0.9998 -0.0217 0.0217 0.9998 110.3918 11.4192)">
		<stop  offset="0" style="stop-color:#0080E2"/>
		<stop  offset="1" style="stop-color:#8800E2"/>
	</linearGradient>
	<path class="st1" d="M35.23,18.96l8.17,4.34c0.5,0.27,0.28,1.02-0.29,0.99l-9.24-0.63c-2.67-0.18-5.21,1.21-6.47,3.56l-4.37,8.11
		c-0.27,0.5-1.03,0.28-0.99-0.28l0.63-9.18c0.18-2.66-1.22-5.17-3.58-6.43l-8.17-4.34c-0.5-0.27-0.28-1.02,0.29-0.99l9.24,0.63
		c2.67,0.18,5.21-1.21,6.47-3.56l4.37-8.11c0.27-0.5,1.03-0.28,0.99,0.28l-0.63,9.18C31.46,15.19,32.86,17.71,35.23,18.96z"/>
	
		<linearGradient id="SVGID_00000136406307230253834750000012717732282574595751_" gradientUnits="userSpaceOnUse" x1="-110.2383" y1="-8.2659" x2="-99.0697" y2="-8.0233" gradientTransform="matrix(0.9998 -0.0217 0.0217 0.9998 110.3918 11.4192)">
		<stop  offset="0" style="stop-color:#0080E2"/>
		<stop  offset="1" style="stop-color:#8800E2"/>
	</linearGradient>
	<path style="fill:url(#SVGID_00000136406307230253834750000012717732282574595751_);" d="M7.9,4.18l3.09-0.05
		c0.19,0,0.25,0.25,0.08,0.33l-2.8,1.3C7.46,6.15,6.95,6.96,6.96,7.85l0.05,3.07c0,0.19-0.26,0.25-0.34,0.08L5.36,8.22
		c-0.38-0.8-1.2-1.31-2.09-1.3L0.18,6.96c-0.19,0-0.25-0.25-0.08-0.33l2.8-1.3c0.81-0.38,1.32-1.19,1.31-2.08L4.16,0.18
		c0-0.19,0.26-0.25,0.34-0.08l1.31,2.78C6.19,3.69,7.01,4.2,7.9,4.18z"/>
	
		<linearGradient id="SVGID_00000176008815309282700450000005325370247711065523_" gradientUnits="userSpaceOnUse" x1="-110.1892" y1="16.1211" x2="-97.7557" y2="16.3912" gradientTransform="matrix(0.9998 -0.0217 0.0217 0.9998 110.3918 11.4192)">
		<stop  offset="0" style="stop-color:#0080E2"/>
		<stop  offset="1" style="stop-color:#8800E2"/>
	</linearGradient>
	<path style="fill:url(#SVGID_00000176008815309282700450000005325370247711065523_);" d="M9.08,27.51l3.66-1.11
		c0.22-0.07,0.38,0.22,0.21,0.37l-2.87,2.51C9.23,30,8.91,31.14,9.23,32.19l1.12,3.63c0.07,0.22-0.22,0.38-0.37,0.21l-2.52-2.86
		c-0.73-0.83-1.88-1.15-2.94-0.83l-3.66,1.11c-0.22,0.07-0.38-0.22-0.21-0.37l2.87-2.51c0.83-0.72,1.16-1.87,0.83-2.92l-1.12-3.63
		c-0.07-0.22,0.22-0.38,0.37-0.21l2.52,2.86C6.87,27.51,8.02,27.83,9.08,27.51z"/>
</g>
</svg>
