<?xml version="1.0" encoding="UTF-8"?>
<svg id="_Слой_1" data-name="Слой 1" xmlns="http://www.w3.org/2000/svg" viewBox="0 0 1500 750.84">
  <defs>
    <style>
      .cls-1, .cls-2 {
        font-family: Montserrat-ExtraBold, Montserrat;
        font-size: 30.17px;
        font-weight: 700;
      }

      .cls-3 {
        fill: #ffcc9e;
      }

      .cls-4 {
        letter-spacing: -.02em;
      }

      .cls-5 {
        letter-spacing: -.02em;
      }

      .cls-2 {
        fill: #fff;
      }

      .cls-6 {
        letter-spacing: 0em;
      }

      .cls-7 {
        letter-spacing: -.03em;
      }

      .cls-8 {
        letter-spacing: -.02em;
      }

      .cls-9 {
        letter-spacing: -.01em;
      }

      .cls-10 {
        letter-spacing: -.01em;
      }

      .cls-11 {
        fill: #ff1380;
      }

      .cls-12 {
        fill: #0064be;
      }
    </style>
  </defs>
  <rect class="cls-12" x="1232.56" y="250.3" width="199.96" height="87.31"/>
  <polygon class="cls-12" points="1096.38 538.66 1096.38 525.19 924.6 525.19 924.6 538.66 910.51 538.66 910.51 612.52 1110.47 612.52 1110.47 538.66 1096.38 538.66"/>
  <path class="cls-12" d="m634.6,217.01h-151.37v159.94h196.29v-159.94h-44.93Zm0,115.01h-70.09v-70.09h70.09v70.09Z"/>
  <polygon class="cls-12" points="67.48 225.63 67.48 270.15 154.8 270.15 154.8 225.63 275.17 225.63 275.17 270.15 362.48 270.15 362.48 225.63 362.48 138.31 275.17 138.31 154.8 138.31 67.48 138.31 67.48 225.63"/>
  <path class="cls-3" d="m1432.52,388.55h-451.67l-298.32-242.36v-.36h-249.57v-78.69H67.48v20.89h344.57v595.66h770.22v-274.26h250.24v-20.89Zm-271.13,274.26H432.95V166.73h241.72l298.69,242.65v.06h188.03v253.36Z"/>
  <circle class="cls-11" cx="232.62" cy="180.34" r="20.11"/>
  <text class="cls-2" transform="translate(180.76 190.62)"><tspan x="0" y="0" xml:space="preserve">Е  15</tspan></text>
  <circle class="cls-11" cx="1349.06" cy="293.95" r="20.11"/>
  <text class="cls-2" transform="translate(1299.87 304.23)"><tspan x="0" y="0" xml:space="preserve">К  9</tspan></text>
  <circle class="cls-11" cx="1032.32" cy="568.86" r="21.83"/>
  <text class="cls-2" transform="translate(971.88 579.14)"><tspan x="0" y="0" xml:space="preserve">Л  </tspan><tspan class="cls-10" x="41.78" y="0">5</tspan><tspan x="59.76" y="0">7</tspan></text>
  <circle class="cls-11" cx="522.61" cy="280.38" r="20.11"/>
  <text class="cls-2" transform="translate(532.89 333.63) rotate(-90)"><tspan x="0" y="0" xml:space="preserve">Е  16</tspan></text>
  <text class="cls-1" transform="translate(167.77 125.4)"><tspan class="cls-6" x="0" y="0">В</tspan><tspan class="cls-7" x="22.14" y="0">Х</tspan><tspan class="cls-5" x="44.17" y="0">О</tspan><tspan x="68.87" y="0">Д</tspan></text>
  <text class="cls-1" transform="translate(467.15 344.18) rotate(-90)"><tspan class="cls-9" x="0" y="0">В</tspan><tspan class="cls-8" x="22.14" y="0">Х</tspan><tspan class="cls-4" x="44.17" y="0">О</tspan><tspan x="68.87" y="0">Д</tspan></text>
  <text class="cls-1" transform="translate(963.28 646.8)"><tspan class="cls-6" x="0" y="0">В</tspan><tspan class="cls-7" x="22.14" y="0">Х</tspan><tspan class="cls-4" x="44.17" y="0">О</tspan><tspan x="68.87" y="0">Д</tspan></text>
  <text class="cls-1" transform="translate(1285.32 371.8)"><tspan class="cls-9" x="0" y="0">В</tspan><tspan class="cls-8" x="22.14" y="0">Х</tspan><tspan class="cls-4" x="44.17" y="0">О</tspan><tspan x="68.87" y="0">Д</tspan></text>
</svg>