                                  <svg
                                    xmlns="http://www.w3.org/2000/svg"
                                    xml:space="preserve"
                                    viewBox="0 0 26 29"
                                  >
                                                       <path fill="#7a7a7a"

                                    
                                      d="M13 25.5c-2.91 0-5.82-.02-8.74.01-.99.01-1.59-.72-1.58-1.6.03-5.37.04-10.74 0-16.11C2.67 6.22 3.91 4.82 5.62 4.83c4.96.04 9.92.01 14.89.01 1.38 0 2.49.92 2.76 2.29.03.18.04.36.04.54 0 5.44 0 10.89 0 16.33 0 .92-.56 1.49-1.47 1.49C18.89 25.5 15.95 25.49 13 25.5zM13 17.22c2.21 0 4.42 0 6.62 0 .63 0 .87-.23.87-.86 0-2.41 0-4.83 0-7.24 0-.91-.55-1.49-1.45-1.49-4.03-.01-8.05-.01-12.08 0-.9 0-1.45.58-1.45 1.49 0 2.41 0 4.83 0 7.24 0 .63.23.86.86.86C8.58 17.22 10.79 17.22 13 17.22zM6.84 19.99c-.74 0-1.33.6-1.32 1.33.01.74.6 1.33 1.34 1.33.73 0 1.34-.62 1.33-1.34C8.17 20.56 7.58 19.98 6.84 19.99zM19.16 22.65c.74 0 1.33-.59 1.33-1.33.01-.73-.59-1.33-1.33-1.33-.74 0-1.33.58-1.34 1.32C17.82 22.03 18.43 22.65 19.16 22.65zM6.2 26.16c.58 0 1.16.01 1.73 0 .26-.01.36.09.35.36-.01.35.01.7-.01 1.05C8.24 28.41 7.64 28.99 6.81 29c-.42 0-.84 0-1.26 0-.8-.01-1.4-.57-1.44-1.39-.02-.38 0-.77-.01-1.15 0-.22.09-.3.3-.3C5 26.17 5.6 26.16 6.2 26.16zM19.83 26.16c.57 0 1.14.01 1.7 0 .27-.01.39.08.37.36-.02.34 0 .68-.01 1.02-.03.86-.63 1.45-1.48 1.45-.41 0-.82 0-1.23 0-.83-.01-1.42-.57-1.47-1.39-.02-.38 0-.77-.01-1.15 0-.23.11-.29.31-.29C18.63 26.17 19.23 26.16 19.83 26.16zM9.78 4.18c-.27 0-.55 0-.82 0-.07 0-.16.03-.19-.06C8.75 4.04 8.83 3.99 8.89 3.95c.48-.42.95-.83 1.43-1.25.9-.78 1.8-1.57 2.7-2.35.06-.06.13-.11.19-.16.36-.27.76-.24 1.01.07.26.32.23.72-.1 1.02-.44.41-.9.8-1.36 1.19-.54.47-1.1.93-1.62 1.42-.24.23-.5.33-.82.3C10.14 4.17 9.96 4.18 9.78 4.18zM16.9 4.1c.44-.39.88-.78 1.32-1.16 1.02-.89 2.04-1.77 3.06-2.66C21.43.14 21.59.02 21.8 0c.31-.02.55.12.69.4.14.29.07.63-.19.87-.59.53-1.19 1.04-1.79 1.57-.43.38-.86.75-1.29 1.13-.17.15-.34.23-.57.22-.58-.01-1.15 0-1.73 0C16.93 4.16 16.91 4.13 16.9 4.1zM26 12.79c0 .47 0 .94 0 1.4 0 .17-.01.34-.06.5-.07.3-.35.5-.65.51-.3.01-.58-.18-.68-.47-.05-.15-.07-.31-.07-.47 0-.71-.01-1.42.01-2.14.01-.27-.07-.4-.36-.36-.27.04-.35-.11-.34-.36.01-.24.01-.49 0-.73-.01-.25.08-.37.35-.36.3.02.61 0 .91 0 .6 0 .87.26.89.87C26.01 11.73 26 12.26 26 12.79 26 12.79 26 12.79 26 12.79zM.01 12.76c0-.51-.01-1.02 0-1.53.01-.65.28-.9.91-.9.3 0 .61.01.91 0 .21-.01.31.08.31.29 0 .29 0 .57 0 .86 0 .21-.1.32-.31.29-.29-.04-.38.09-.37.38.02.7.01 1.4 0 2.1 0 .15-.01.3-.05.44-.09.33-.38.54-.7.52-.33-.01-.6-.24-.66-.58-.09-.45-.03-.91-.04-1.36C0 13.1.01 12.93.01 12.76.01 12.76.01 12.76.01 12.76z"
                                    />
                                  </svg>