<svg
                                    xmlns="http://www.w3.org/2000/svg"
                                    xml:space="preserve"
                                    viewBox="0 0 25 25"
                                  >
                                    <path fill="#7a7a7a"
                                      d="M4.88 0C9.95 0 15.03 0 20.1 0c.05.01.11.03.16.04 1.38.34 2.29 1.38 2.44 2.8.08.73.02 1.46.03 2.19.01.7 0 .7.69.71C24.31 5.75 24.99 6.42 25 7.3c.01.92.01 1.84 0 2.76-.01.64-.31 1.1-.87 1.39-.28.15-.59.18-.9.18-.48 0-.48 0-.48.47 0 1.62 0 3.23 0 4.85 0 1.03 0 2.06 0 3.1-.01.84-.47 1.47-1.21 1.65-.23.06-.47.06-.7.06-5.56 0-11.12 0-16.68 0-.1 0-.2 0-.29 0-.51-.02-.95-.21-1.27-.62-.27-.34-.35-.74-.35-1.17 0-2.64 0-5.28 0-7.92 0-.42 0-.42-.42-.42-.99 0-1.45-.31-1.82-1.23 0-1.14 0-2.28 0-3.41.18-.63.57-1.05 1.21-1.21.23-.06.47-.02.7-.03.3-.01.32-.01.32-.32 0-.73 0-1.46 0-2.19 0-.59.12-1.14.42-1.66C3.16.71 3.92.21 4.88 0zM8.54 15.41c.03.02.04.03.05.03 1.04 0 2.08 0 3.12 0 .2 0 .22-.11.22-.27 0-3.15 0-6.29 0-9.44 0-.2-.07-.27-.27-.27-2.69 0-5.38 0-8.07 0-.2 0-.27.08-.27.27 0 3.15 0 6.29 0 9.44 0 .2.08.27.27.27.65-.01 1.3 0 1.95 0 .09 0 .18-.01.26-.04.98-.43 1.97-.84 2.94-1.31.7-.34 1.06-.94 1.09-1.72.01-.24 0-.49.01-.73 0-.51-.01-1.02.02-1.53.02-.35.27-.53.59-.51.3.02.49.24.49.58 0 .72.01 1.43-.01 2.15-.03 1.32-.67 2.26-1.85 2.84C8.92 15.25 8.73 15.32 8.54 15.41zM16.42 15.45c0-.02 0-.03 0-.05-.18-.08-.36-.16-.53-.24-1.01-.48-1.66-1.26-1.81-2.38-.13-.91-.04-1.83-.04-2.75 0-.24.23-.42.48-.44.36-.03.6.21.61.63.01.66.01 1.32 0 1.98-.01.97.45 1.63 1.33 2.02.68.3 1.38.58 2.05.91.5.24 1.01.37 1.57.33.41-.03.83 0 1.24-.01.31 0 .31-.01.31-.32 0-3.11 0-6.23 0-9.34 0-.23-.06-.32-.3-.32-2.67.01-5.33.01-8 0-.24 0-.31.08-.31.31.01.98 0 1.95 0 2.93 0 2.14 0 4.28 0 6.41 0 .31.01.32.31.32.33 0 .67 0 1 0C15.04 15.45 15.73 15.45 16.42 15.45zM12.5 18.21c-.28 0-.55 0-.83 0-.64 0-1.28 0-1.92 0-.3 0-.49.18-.51.44-.02.27.14.47.43.53.07.01.15.02.22.02 1.74 0 3.48 0 5.21 0 .11 0 .23-.01.34-.05.22-.08.34-.28.31-.52-.03-.22-.19-.38-.41-.41-.08-.01-.16-.01-.24-.01C14.22 18.21 13.36 18.21 12.5 18.21zM7.46 18.69c0-.79-.62-1.41-1.4-1.41-.78 0-1.41.63-1.41 1.41 0 .79.64 1.44 1.42 1.42C6.85 20.1 7.46 19.48 7.46 18.69zM17.52 18.71c0 .78.63 1.41 1.41 1.41.79 0 1.41-.64 1.4-1.44-.01-.78-.64-1.4-1.42-1.39C18.13 17.29 17.52 17.92 17.52 18.71zM6.57 22.72c.75 0 1.5.01 2.24 0 .23 0 .32.08.31.31-.01.28 0 .57-.09.84-.2.67-.8 1.11-1.49 1.12-.65 0-1.3 0-1.95 0-.87-.01-1.56-.69-1.56-1.57 0-.81-.12-.7.68-.7C5.34 22.72 5.95 22.72 6.57 22.72zM18.4 22.72c.75 0 1.5.01 2.24 0 .23 0 .33.07.31.31-.02.27.02.54-.06.8-.19.69-.79 1.16-1.5 1.17-.65 0-1.3 0-1.95 0-.81-.01-1.45-.58-1.56-1.39-.03-.2-.02-.41-.03-.61-.01-.2.08-.27.28-.27C16.88 22.73 17.64 22.72 18.4 22.72z"
                                    />
                                  </svg>