                              <svg
                                    xmlns="http://www.w3.org/2000/svg"
                                    xml:space="preserve"
                                    viewBox="0 0 23 23"
                                  >
                                    <path d="M8.94 2.53H10.64V4.24H8.94z" fill="#7a7a7a" />
                                    <path fill="#7a7a7a"
                                      d="M22.77,8.04c-0.22,0.01-0.45-0.01-0.67,0c-0.22,0.02-0.27-0.08-0.27-0.28c0.01-0.97-0.01-1.93,0.01-2.9 c0.02-0.84-0.2-1.62-0.66-2.31C20.12,0.94,18.68-0.03,16.66,0c-1.73,0.02-3.46,0.01-5.18,0.01c-1.83,0-3.65,0-5.48,0 c-0.14,0-0.29,0.01-0.43,0.02C4.23,0.17,3.19,0.86,2.34,1.86C1.54,2.79,1.11,3.85,1.16,5.1c0.04,0.88,0,1.77,0.01,2.65 c0,0.22-0.07,0.3-0.29,0.29c-0.21-0.02-0.43,0-0.64,0C0.08,8.03,0,8.1,0,8.26c0,1.01,0,2.02,0,3.03c0,0.15,0.06,0.23,0.23,0.23 c0.21-0.01,0.41,0.02,0.62,0c0.27-0.03,0.33,0.08,0.33,0.33c-0.01,2.15,0,4.29-0.01,6.44c0,0.82,0.32,1.45,0.96,1.94 c0.14,0.1,0.19,0.22,0.18,0.39c-0.01,0.4-0.01,0.8,0,1.21c0.01,0.57,0.4,1.03,0.96,1.13c0.49,0.09,0.98,0.07,1.47,0.02 c0.65-0.07,1.04-0.54,1.07-1.2c0.01-0.23,0-0.47,0-0.7c0-0.37,0-0.37,0.37-0.37c2.81,0,5.62,0,8.43,0c0.77,0,1.54,0,2.31,0 c0.19,0,0.28,0.06,0.27,0.26c-0.01,0.27-0.01,0.54,0,0.8c0.03,0.68,0.44,1.16,1.12,1.22c0.42,0.04,0.84,0.04,1.26,0 c0.71-0.06,1.12-0.55,1.13-1.26c0-0.37,0.01-0.73,0-1.1c-0.01-0.18,0.06-0.29,0.2-0.4c0.62-0.47,0.93-1.09,0.93-1.87 c0-1.66,0-3.33,0-4.99c0-0.53,0.01-1.06,0-1.58c0-0.2,0.07-0.27,0.27-0.26c0.22,0.01,0.45,0,0.67,0c0.16,0,0.23-0.06,0.23-0.22 c0-1.01,0-2.02,0-3.03C23,8.11,22.93,8.04,22.77,8.04z M5.22,18.34c-0.93,0.01-1.71-0.77-1.71-1.71c0.01-0.91,0.77-1.68,1.68-1.68 c0.94,0,1.68,0.75,1.68,1.7C6.87,17.58,6.14,18.33,5.22,18.34z M10.32,12.31c0,0.24-0.09,0.3-0.32,0.3c-2.07-0.01-4.13-0.01-6.2,0 c-0.22,0-0.3-0.06-0.3-0.29c0.01-1.7,0.01-3.4,0-5.09C3.5,7,3.59,6.94,3.8,6.94c1.04,0.01,2.08,0,3.11,0c1.03,0,2.06,0.01,3.09,0 c0.23,0,0.32,0.06,0.31,0.3C10.31,8.93,10.31,10.62,10.32,12.31z M10.65,4.24v1.71h-1.7V4.24h-1.7V2.53h1.7V0.83h1.7v1.71h1.7V0.83 h1.7v1.71h1.7v1.71h-1.7v1.71h-1.7V4.24H10.65z M17.79,18.34c-0.92,0-1.66-0.76-1.66-1.69c0-0.94,0.74-1.7,1.68-1.7 c0.92,0,1.69,0.77,1.69,1.7C19.49,17.58,18.72,18.34,17.79,18.34z M19.18,12.61c-1.03-0.01-2.06,0-3.09,0s-2.06-0.01-3.09,0 c-0.24,0-0.33-0.07-0.33-0.32c0.01-1.68,0.01-3.36,0-5.04c0-0.23,0.06-0.31,0.3-0.31c2.07,0.01,4.13,0.01,6.2,0 c0.23,0,0.31,0.07,0.31,0.3c-0.01,1.69-0.01,3.38,0,5.07C19.5,12.56,19.41,12.61,19.18,12.61z"
                                    />
                                    <path fill="#7a7a7a" d="M12.35 2.53H14.05V4.24H12.35z" />
                                  </svg>