<svg xmlns="http://www.w3.org/2000/svg" xml:space="preserve" id="Слой_1" x="0" y="0" version="1.1" viewBox="0 0 18 24"><path fill="#db423a" d="M8.76,24c-0.39-0.24-0.67-0.58-0.97-0.91c-1.29-1.39-2.51-2.84-3.62-4.38c-1-1.39-1.92-2.83-2.68-4.36 c-0.55-1.11-1-2.25-1.28-3.46c-0.38-1.67-0.26-3.3,0.31-4.91c0.66-1.83,1.79-3.3,3.38-4.4c1.23-0.85,2.61-1.37,4.1-1.53 c2.16-0.23,4.16,0.26,5.96,1.46c2.07,1.38,3.34,3.33,3.85,5.77c0.4,1.9,0.06,3.73-0.63,5.5c-0.71,1.82-1.69,3.5-2.8,5.1 c-1.4,2.03-2.96,3.92-4.67,5.7c-0.15,0.16-0.31,0.31-0.5,0.42C9.08,24,8.92,24,8.76,24z M9.01,4.52C6.54,4.57,4.55,6.41,4.53,8.99 c-0.02,2.48,1.88,4.49,4.46,4.5c2.47,0.01,4.46-1.88,4.48-4.45C13.49,6.55,11.59,4.59,9.01,4.52z"/></svg>

