<?xml version="1.0" encoding="utf-8"?>
<!-- Generator: Adobe Illustrator 27.2.0, SVG Export Plug-In . SVG Version: 6.00 Build 0)  -->
<svg version="1.1" id="Слой_1" xmlns="http://www.w3.org/2000/svg" xmlns:xlink="http://www.w3.org/1999/xlink" x="0px" y="0px"
	 viewBox="0 0 25.38 42.11" style="enable-background:new 0 0 25.38 42.11;" xml:space="preserve">
<style type="text/css">
	.st0{fill:#FFFFFF;}
	.st1{fill:url(#SVGID_1_);}
	.st2{fill:url(#SVGID_00000034084320640043682830000016350397423588160177_);}
	.st3{fill:url(#SVGID_00000136397910622494471720000008310124114049134227_);}
	.st4{fill:url(#SVGID_00000129894689676758935580000000882991385751655552_);}
	.st5{fill:url(#SVGID_00000051350275114739206880000016049257557799705528_);}
	.st6{fill:url(#SVGID_00000009571021124405751710000000008461543661251470_);}
	.st7{fill:url(#SVGID_00000018198625483741553350000003250568559788328611_);}
	.st8{clip-path:url(#SVGID_00000129898052789508019530000014712706257537830562_);fill:#9CFFD4;}
	.st9{fill:url(#SVGID_00000075143168124791171630000016510057742522786216_);}
	.st10{fill:url(#SVGID_00000078764913471600712260000010006713290889704381_);}
	.st11{fill:url(#SVGID_00000049194623056781600150000000287846212559715464_);}
	.st12{fill:url(#SVGID_00000162310855009895904610000011766876098226484901_);}
	.st13{clip-path:url(#SVGID_00000014623481890069873410000016900081862603204539_);fill:#9CFFD4;}
	.st14{fill:url(#SVGID_00000178204748004804743190000005844085160797228198_);}
	.st15{clip-path:url(#SVGID_00000048475964714203278110000012145416689281798051_);fill:#9CFFD4;}
	.st16{fill:url(#SVGID_00000138573524351576607300000011083798417259049368_);}
	.st17{clip-path:url(#SVGID_00000146462854424933435690000015087292483900805760_);fill:#9CFFD4;}
	.st18{clip-path:url(#SVGID_00000070090345910175120250000013964723877223847597_);}
	.st19{clip-path:url(#SVGID_00000005975175115326138150000009981487617838912683_);}
	.st20{fill:#FFDAAC;stroke:#808080;stroke-miterlimit:10;stroke-dasharray:4;}
	.st21{fill:#FFDAAC;}
	.st22{fill:none;stroke:#808080;stroke-miterlimit:10;}
	.st23{fill:none;stroke:#808080;stroke-miterlimit:10;stroke-dasharray:4.2056,4.2056;}
	.st24{fill:none;stroke:#808080;stroke-miterlimit:10;stroke-dasharray:3.0978,3.0978;}
	.st25{fill:none;stroke:#808080;stroke-miterlimit:10;stroke-dasharray:3.3103,3.3103;}
	.st26{fill:none;stroke:#808080;stroke-miterlimit:10;stroke-dasharray:2.3694,2.3694;}
	.st27{fill:none;stroke:#808080;stroke-miterlimit:10;stroke-dasharray:2.8854,2.8854;}
	.st28{fill:none;stroke:#808080;stroke-miterlimit:10;stroke-dasharray:5.1009,5.1009;}
	.st29{fill:none;stroke:#808080;stroke-miterlimit:10;stroke-dasharray:3.6161,3.6161;}
	.st30{fill:none;stroke:#808080;stroke-miterlimit:10;stroke-dasharray:3.1433,3.1433;}
	.st31{fill:none;stroke:#808080;stroke-miterlimit:10;stroke-dasharray:4.0795,4.0795;}
	.st32{fill:none;stroke:#808080;stroke-miterlimit:10;stroke-dasharray:3.823,3.823;}
	.st33{fill:none;stroke:#808080;stroke-miterlimit:10;stroke-dasharray:4.2919,4.2919;}
	.st34{fill:none;stroke:#808080;stroke-miterlimit:10;stroke-dasharray:4.2468,4.2468;}
	.st35{fill:none;stroke:#808080;stroke-miterlimit:10;stroke-dasharray:3.8855,3.8855;}
	.st36{fill:none;stroke:#808080;stroke-miterlimit:10;stroke-dasharray:3.3634,3.3634;}
	.st37{fill:#00649E;}
	.st38{fill:#808080;}
	.st39{fill:#FF1380;}
	.st40{fill:#DB423A;}
</style>
<g>
	
		<linearGradient id="SVGID_1_" gradientUnits="userSpaceOnUse" x1="-2936.7666" y1="-2049.4641" x2="-2911.426" y2="-2049.4641" gradientTransform="matrix(0.7667 -0.642 0.642 0.7667 3569.9373 -276.2264)">
		<stop  offset="0" style="stop-color:#0080E2"/>
		<stop  offset="1" style="stop-color:#8800E2"/>
	</linearGradient>
	<path class="st1" d="M17.04,25.89l7.04-1.3c0.43-0.08,0.67,0.48,0.31,0.73l-5.88,4.06c-1.7,1.17-2.55,3.23-2.17,5.26l1.31,7
		c0.08,0.43-0.49,0.66-0.74,0.31l-4.09-5.84c-1.18-1.69-3.25-2.54-5.29-2.16l-7.04,1.3c-0.43,0.08-0.67-0.48-0.31-0.73l5.88-4.06
		c1.7-1.17,2.55-3.23,2.17-5.26l-1.31-7c-0.08-0.43,0.49-0.66,0.74-0.31l4.09,5.84C12.93,25.42,15,26.27,17.04,25.89z"/>
	
		<linearGradient id="SVGID_00000035531168374960859760000004312178539690141617_" gradientUnits="userSpaceOnUse" x1="-96.1744" y1="0.1992" x2="-84.9521" y2="0.1992" gradientTransform="matrix(0.9998 -0.0217 0.0217 0.9998 110.336 9.9974)">
		<stop  offset="0" style="stop-color:#0080E2"/>
		<stop  offset="1" style="stop-color:#8800E2"/>
	</linearGradient>
	<path style="fill:url(#SVGID_00000035531168374960859760000004312178539690141617_);" d="M22.11,10.8l3.09-0.05
		c0.19,0,0.25,0.25,0.08,0.33l-2.8,1.3c-0.81,0.38-1.32,1.19-1.31,2.08l0.05,3.07c0,0.19-0.26,0.25-0.34,0.08l-1.31-2.78
		c-0.38-0.8-1.2-1.31-2.09-1.3l-3.09,0.05c-0.19,0-0.25-0.25-0.08-0.33l2.8-1.3c0.81-0.38,1.32-1.19,1.31-2.08l-0.05-3.07
		c0-0.19,0.26-0.25,0.34-0.08l1.31,2.78C20.4,10.3,21.22,10.81,22.11,10.8z"/>
	
		<linearGradient id="SVGID_00000098206689005044281490000007352212437495404451_" gradientUnits="userSpaceOnUse" x1="-104.748" y1="-8.8108" x2="-97.8492" y2="-8.8108" gradientTransform="matrix(0.9998 -0.0217 0.0217 0.9998 110.336 9.9974)">
		<stop  offset="0" style="stop-color:#0080E2"/>
		<stop  offset="1" style="stop-color:#8800E2"/>
	</linearGradient>
	<path style="fill:url(#SVGID_00000098206689005044281490000007352212437495404451_);" d="M10.12,2.06l2.01-0.61
		c0.12-0.04,0.21,0.12,0.11,0.2l-1.58,1.37c-0.46,0.4-0.64,1.02-0.46,1.6l0.61,1.99c0.04,0.12-0.12,0.21-0.2,0.11L9.23,5.17
		C8.83,4.72,8.2,4.54,7.62,4.71L5.61,5.32C5.49,5.36,5.4,5.21,5.5,5.12l1.58-1.37c0.46-0.4,0.64-1.02,0.46-1.6L6.92,0.15
		c-0.04-0.12,0.12-0.21,0.2-0.11l1.38,1.57C8.91,2.06,9.54,2.24,10.12,2.06z"/>
</g>
</svg>
